<svg xmlns="http://www.w3.org/2000/svg" width="20" height="20" viewBox="0 0 20 20" fill="none">
  <path fill-rule="evenodd" clip-rule="evenodd"
    d="M2.5 4.58333C2.5 3.43274 3.43274 2.5 4.58333 2.5H15.4167C16.5673 2.5 17.5 3.43274 17.5 4.58333V15.4167C17.5 16.5673 16.5673 17.5 15.4167 17.5H4.58333C3.43274 17.5 2.5 16.5673 2.5 15.4167V4.58333ZM4.58333 3.33333H12.5V16.6667H4.58333C3.89298 16.6667 3.33333 16.107 3.33333 15.4167V4.58333C3.33333 3.89298 3.89298 3.33333 4.58333 3.33333ZM13.3333 16.6667V3.33333H15.4167C16.107 3.33333 16.6667 3.89298 16.6667 4.58333V15.4167C16.6667 16.107 16.107 16.6667 15.4167 16.6667H13.3333ZM5 6.25C5 6.48012 5.18655 6.66667 5.41667 6.66667H10.4167C10.6468 6.66667 10.8333 6.48012 10.8333 6.25C10.8333 6.01988 10.6468 5.83333 10.4167 5.83333H5.41667C5.18655 5.83333 5 6.01988 5 6.25ZM5.41667 8.33333C5.18655 8.33333 5 8.14679 5 7.91667C5 7.68655 5.18655 7.5 5.41667 7.5H10.4167C10.6468 7.5 10.8333 7.68655 10.8333 7.91667C10.8333 8.14679 10.6468 8.33333 10.4167 8.33333H5.41667ZM5 9.58333C5 9.81345 5.18655 10 5.41667 10H8.75C8.98012 10 9.16667 9.81345 9.16667 9.58333C9.16667 9.35321 8.98012 9.16667 8.75 9.16667H5.41667C5.18655 9.16667 5 9.35321 5 9.58333ZM5.41667 12.5C5.18655 12.5 5 12.3135 5 12.0833C5 11.8532 5.18655 11.6667 5.41667 11.6667H10.4167C10.6468 11.6667 10.8333 11.8532 10.8333 12.0833C10.8333 12.3135 10.6468 12.5 10.4167 12.5H5.41667ZM5 13.75C5 13.9801 5.18655 14.1667 5.41667 14.1667H8.75C8.98012 14.1667 9.16667 13.9801 9.16667 13.75C9.16667 13.5199 8.98012 13.3333 8.75 13.3333H5.41667C5.18655 13.3333 5 13.5199 5 13.75Z"
    fill="#1C1917" />
</svg>