<svg xmlns="http://www.w3.org/2000/svg" width="16" height="16" viewBox="0 0 16 16" fill="none">
  <path d="M4.33325 5.33325V10.6666" stroke="#78716C" stroke-width="1.5" stroke-linecap="round"
    stroke-linejoin="round" />
  <path
    d="M11.6667 5.33333C12.5871 5.33333 13.3333 4.58714 13.3333 3.66667C13.3333 2.74619 12.5871 2 11.6667 2C10.7462 2 10 2.74619 10 3.66667C10 4.58714 10.7462 5.33333 11.6667 5.33333Z"
    stroke="#78716C" stroke-width="1.5" stroke-linecap="round" stroke-linejoin="round" />
  <path
    d="M4.33341 14.0001C5.25389 14.0001 6.00008 13.2539 6.00008 12.3334C6.00008 11.4129 5.25389 10.6667 4.33341 10.6667C3.41294 10.6667 2.66675 11.4129 2.66675 12.3334C2.66675 13.2539 3.41294 14.0001 4.33341 14.0001Z"
    stroke="#78716C" stroke-width="1.5" stroke-linecap="round" stroke-linejoin="round" />
  <path
    d="M4.33341 5.33333C5.25389 5.33333 6.00008 4.58714 6.00008 3.66667C6.00008 2.74619 5.25389 2 4.33341 2C3.41294 2 2.66675 2.74619 2.66675 3.66667C2.66675 4.58714 3.41294 5.33333 4.33341 5.33333Z"
    stroke="#78716C" stroke-width="1.5" stroke-linecap="round" stroke-linejoin="round" />
  <path
    d="M11.6666 5.33325C11.6666 6.0405 11.3856 6.71877 10.8855 7.21887C10.3854 7.71897 9.70716 7.99992 8.99992 7.99992H6.99992C6.29267 7.99992 5.6144 8.28087 5.1143 8.78097C4.6142 9.28106 4.33325 9.95934 4.33325 10.6666"
    stroke="#78716C" stroke-width="1.5" stroke-linecap="round" stroke-linejoin="round" />
</svg>