<svg xmlns="http://www.w3.org/2000/svg" width="20" height="20" viewBox="0 0 20 20" fill="none">
  <path fill-rule="evenodd" clip-rule="evenodd"
    d="M3.45939 16.9652C3.38165 16.8895 3.33337 16.7837 3.33337 16.6666V3.74996C3.33337 2.59937 4.26611 1.66663 5.41671 1.66663H15.4167C16.1071 1.66663 16.6667 2.22627 16.6667 2.91663V17.0833C16.6667 17.7736 16.1071 18.3333 15.4167 18.3333H5.41671C4.51739 18.3333 3.75117 17.7635 3.45939 16.9652ZM5.41671 2.49996H5.83337V14.1666H5.41671C4.9477 14.1666 4.5149 14.3216 4.16671 14.5831V3.74996C4.16671 3.0596 4.72635 2.49996 5.41671 2.49996ZM6.66671 14.1666V2.49996H15.4167C15.6468 2.49996 15.8334 2.68651 15.8334 2.91663V14.1666H6.66671ZM5.41671 15H15.8334V17.0833C15.8334 17.3134 15.6468 17.5 15.4167 17.5H5.41671C4.72635 17.5 4.16671 16.9403 4.16671 16.25C4.16671 15.5596 4.72635 15 5.41671 15ZM8.75004 8.33329C8.51992 8.33329 8.33337 8.14674 8.33337 7.91663C8.33337 7.68651 8.51992 7.49996 8.75004 7.49996H13.75C13.9802 7.49996 14.1667 7.68651 14.1667 7.91663C14.1667 8.14674 13.9802 8.33329 13.75 8.33329H8.75004ZM8.33337 6.24996C8.33337 6.48008 8.51992 6.66663 8.75004 6.66663H12.0834C12.3135 6.66663 12.5 6.48008 12.5 6.24996C12.5 6.01984 12.3135 5.83329 12.0834 5.83329H8.75004C8.51992 5.83329 8.33337 6.01984 8.33337 6.24996Z"
    fill="#1C1917" />
</svg>