<svg xmlns="http://www.w3.org/2000/svg" width="16" height="16" viewBox="0 0 16 16" fill="none">
  <g clip-path="url(#clip0_197_622)">
    <path d="M6.99935 10.6667L5.66602 9.33333L6.99935 8" stroke="#78716C" stroke-width="1.5" stroke-linecap="round"
      stroke-linejoin="round" />
    <path d="M9 8L10.3333 9.33333L9 10.6667" stroke="#78716C" stroke-width="1.5" stroke-linecap="round"
      stroke-linejoin="round" />
    <path
      d="M12.6667 4.62675H8.35267C8.24392 4.62674 8.13683 4.60013 8.04073 4.54924C7.94463 4.49834 7.86244 4.4247 7.80133 4.33475L6.86467 2.95808C6.80356 2.86834 6.72144 2.79488 6.62547 2.74411C6.5295 2.69333 6.42258 2.66678 6.314 2.66675H3.33333C3.15822 2.6667 2.98482 2.70115 2.82303 2.76814C2.66124 2.83513 2.51424 2.93334 2.39042 3.05716C2.2666 3.18099 2.16839 3.32799 2.1014 3.48978C2.03441 3.65157 1.99995 3.82497 2 4.00008V12.6667C1.99995 12.8419 2.03441 13.0153 2.1014 13.177C2.16839 13.3388 2.2666 13.4858 2.39042 13.6097C2.51424 13.7335 2.66124 13.8317 2.82303 13.8987C2.98482 13.9657 3.15822 14.0001 3.33333 14.0001H12.6667C12.8418 14.0001 13.0152 13.9657 13.177 13.8987C13.3388 13.8317 13.4858 13.7335 13.6096 13.6097C13.7334 13.4858 13.8316 13.3388 13.8986 13.177C13.9656 13.0153 14 12.8419 14 12.6667V5.96008C14 5.60646 13.8595 5.26733 13.6095 5.01729C13.3594 4.76724 13.0203 4.62676 12.6667 4.62675Z"
      stroke="#78716C" stroke-width="1.5" stroke-linecap="round" stroke-linejoin="round" />
  </g>
  <defs>
    <clipPath id="clip0_197_622">
      <rect width="16" height="16" fill="white" />
    </clipPath>
  </defs>
</svg>