<svg width="20" height="20" viewBox="0 0 20 20" fill="none" xmlns="http://www.w3.org/2000/svg">
  <path fill-rule="evenodd" clip-rule="evenodd"
    d="M8.33333 2.91667C8.33333 3.14679 8.51988 3.33333 8.75 3.33333H15.4167C16.107 3.33333 16.6667 3.89298 16.6667 4.58333V15.4167C16.6667 16.107 16.107 16.6667 15.4167 16.6667H8.75C8.51988 16.6667 8.33333 16.8532 8.33333 17.0833C8.33333 17.3135 8.51988 17.5 8.75 17.5H15.4167C16.5673 17.5 17.5 16.5673 17.5 15.4167V4.58333C17.5 3.43274 16.5673 2.5 15.4167 2.5H8.75C8.51988 2.5 8.33333 2.68655 8.33333 2.91667ZM2.91667 10H11.9107L9.2887 12.622C9.12599 12.7848 9.12599 13.0486 9.2887 13.2113C9.45142 13.374 9.71524 13.374 9.87796 13.2113L13.2113 9.87796C13.374 9.71524 13.374 9.45142 13.2113 9.28871L9.87796 5.95537C9.71524 5.79265 9.45142 5.79265 9.2887 5.95537C9.12599 6.11809 9.12599 6.38191 9.2887 6.54463L11.9107 9.16667H2.91667C2.68655 9.16667 2.5 9.35321 2.5 9.58333C2.5 9.81345 2.68655 10 2.91667 10Z"
    fill="#1C1917" />
</svg>