<svg xmlns="http://www.w3.org/2000/svg" width="16" height="16" viewBox="0 0 16 16" fill="none">
  <g clip-path="url(#clip0_192_6415)">
    <path
      d="M12.6668 3.66675C12.6668 4.58741 10.5775 5.33341 8.00016 5.33341C5.42283 5.33341 3.3335 4.58741 3.3335 3.66675"
      stroke="#78716C" stroke-width="1.5" stroke-linecap="round" stroke-linejoin="round" />
    <path
      d="M12.6668 6.33325C12.6668 7.25392 10.5775 7.99992 8.00016 7.99992C5.42283 7.99992 3.3335 7.25392 3.3335 6.33325"
      stroke="#78716C" stroke-width="1.5" stroke-linecap="round" stroke-linejoin="round" />
    <path
      d="M12.6668 9C12.6668 9.92067 10.5775 10.6667 8.00016 10.6667C5.42283 10.6667 3.3335 9.92067 3.3335 9V3.66667C3.3335 2.746 5.42283 2 8.00016 2C10.5775 2 12.6668 2.746 12.6668 3.66667V9Z"
      stroke="#78716C" stroke-width="1.5" stroke-linecap="round" stroke-linejoin="round" />
    <path d="M8 10.6667V12.3334" stroke="#78716C" stroke-width="1.5" stroke-linecap="round" stroke-linejoin="round" />
    <path d="M9 13.3333H13.3333" stroke="#78716C" stroke-width="1.5" stroke-linecap="round" stroke-linejoin="round" />
    <path d="M2.66675 13.3333H7.00008" stroke="#78716C" stroke-width="1.5" stroke-linecap="round"
      stroke-linejoin="round" />
    <path
      d="M8.70711 12.6261C9.09763 13.0167 9.09763 13.6498 8.70711 14.0404C8.31658 14.4309 7.68342 14.4309 7.29289 14.0404C6.90237 13.6498 6.90237 13.0167 7.29289 12.6261C7.68342 12.2356 8.31658 12.2356 8.70711 12.6261Z"
      stroke="#78716C" stroke-width="1.5" stroke-linecap="round" stroke-linejoin="round" />
  </g>
  <defs>
    <clipPath id="clip0_192_6415">
      <rect width="16" height="16" fill="white" />
    </clipPath>
  </defs>
</svg>