<svg xmlns="http://www.w3.org/2000/svg" width="16" height="16" viewBox="0 0 16 16" fill="none">
  <g clip-path="url(#clip0_210_441)">
    <path
      d="M11.9674 6.73192C13.4582 6.73192 14.6667 5.52339 14.6667 4.03259C14.6667 2.54178 13.4582 1.33325 11.9674 1.33325C10.4766 1.33325 9.26807 2.54178 9.26807 4.03259C9.26807 5.52339 10.4766 6.73192 11.9674 6.73192Z"
      stroke="#78716C" stroke-width="1.5" stroke-linecap="round" stroke-linejoin="round" />
    <path d="M9.2666 13.9999C10.3805 13.7451 11.4 13.1813 12.208 12.3733C13.016 11.5653 13.5798 10.5458 13.8346 9.43188"
      stroke="#78716C" stroke-width="1.5" stroke-linecap="round" stroke-linejoin="round" />
    <path d="M2 6.7334C2.25453 5.6192 2.81819 4.5994 3.62622 3.79114C4.43425 2.98287 5.45388 2.41892 6.568 2.16406"
      stroke="#78716C" stroke-width="1.5" stroke-linecap="round" stroke-linejoin="round" />
    <path d="M6.568 13.9999C5.45416 13.7449 4.43476 13.1811 3.62678 12.3731C2.8188 11.5651 2.25497 10.5457 2 9.43188"
      stroke="#78716C" stroke-width="1.5" stroke-linecap="round" stroke-linejoin="round" />
  </g>
  <defs>
    <clipPath id="clip0_210_441">
      <rect width="16" height="16" fill="white" />
    </clipPath>
  </defs>
</svg>