<svg xmlns="http://www.w3.org/2000/svg" width="24" height="24" viewBox="0 0 24 24" fill="none">
  <path fill-rule="evenodd" clip-rule="evenodd"
    d="M2 12C2 17.5228 6.47715 22 12 22C17.5228 22 22 17.5228 22 12C22 6.47715 17.5228 2 12 2C6.47715 2 2 6.47715 2 12ZM21 12C21 16.9706 16.9706 21 12 21C7.02944 21 3 16.9706 3 12C3 7.02944 7.02944 3 12 3C16.9706 3 21 7.02944 21 12ZM8 8.81797C8 8.48677 8.09138 8.16198 8.26409 7.87936C8.78247 7.03111 9.89035 6.76369 10.7386 7.28207L16.2248 10.6347C16.4414 10.7671 16.6234 10.9491 16.7557 11.1657C17.2165 11.9197 16.9788 12.9045 16.2248 13.3653L10.7386 16.7179C10.456 16.8906 10.1312 16.982 9.8 16.982C8.80589 16.982 8 16.1761 8 15.182V8.81797ZM9.8 15.982C9.35817 15.982 9 15.6239 9 15.182V8.81797C9 8.67077 9.04062 8.52642 9.11737 8.40081C9.34777 8.02381 9.84016 7.90496 10.2172 8.13535L15.7034 11.488C15.7846 11.5377 15.8528 11.6059 15.9025 11.6871C16.0753 11.9699 15.9861 12.3392 15.7034 12.512L10.2172 15.8647C10.0916 15.9414 9.9472 15.982 9.8 15.982Z"
    fill="#292524" />
</svg>